<?xml version="1.0" encoding="UTF-8" standalone="no"?>
<!DOCTYPE svg PUBLIC "-//W3C//DTD SVG 1.1//EN" "http://www.w3.org/Graphics/SVG/1.1/DTD/svg11.dtd">
<svg version="1.1" xmlns="http://www.w3.org/2000/svg" xmlns:xlink="http://www.w3.org/1999/xlink" preserveAspectRatio="xMidYMid meet" viewBox="0.21000000000000796 0.5 226.29 202.69" width="222.29" height="198.69"><defs><path d="M43.5 55.36C63.33 55.36 61.35 44.19 63.33 42.95C63.33 30.53 58.98 31.77 58.5 30.53C55.28 30.53 53.61 27.19 53.5 20.5" id="e8dMP97oC"></path><path d="M43.5 55.5C43.5 58.26 41.26 60.5 38.5 60.5C35.74 60.5 33.5 58.26 33.5 55.5C33.5 52.74 35.74 50.5 38.5 50.5C41.26 50.5 43.5 52.74 43.5 55.5Z" id="b1HDmyjFNs"></path><path d="M53.5 55.36C33.67 55.36 35.65 44.19 33.67 42.95C33.67 30.53 38.02 31.77 38.5 30.53C41.72 30.53 43.39 27.19 43.5 20.5" id="aT9YRvFd"></path><path d="M63.5 55.5C63.5 58.26 61.26 60.5 58.5 60.5C55.74 60.5 53.5 58.26 53.5 55.5C53.5 52.74 55.74 50.5 58.5 50.5C61.26 50.5 63.5 52.74 63.5 55.5Z" id="aIL7dja1z"></path><path d="M73.5 55.5C73.5 58.26 71.26 60.5 68.5 60.5C65.74 60.5 63.5 58.26 63.5 55.5C63.5 52.74 65.74 50.5 68.5 50.5C71.26 50.5 73.5 52.74 73.5 55.5Z" id="c1GNHXVc8E"></path><path d="M93.5 55.5C93.5 58.26 91.26 60.5 88.5 60.5C85.74 60.5 83.5 58.26 83.5 55.5C83.5 52.74 85.74 50.5 88.5 50.5C91.26 50.5 93.5 52.74 93.5 55.5Z" id="bdKlAKkns"></path><path d="M103.5 55.5C103.5 58.26 101.26 60.5 98.5 60.5C95.74 60.5 93.5 58.26 93.5 55.5C93.5 52.74 95.74 50.5 98.5 50.5C101.26 50.5 103.5 52.74 103.5 55.5Z" id="b29ZtbsVCi"></path><path d="M143.5 55.5C143.5 58.26 141.26 60.5 138.5 60.5C135.74 60.5 133.5 58.26 133.5 55.5C133.5 52.74 135.74 50.5 138.5 50.5C141.26 50.5 143.5 52.74 143.5 55.5Z" id="c1J99esbv"></path><path d="M153.5 55.5C153.5 58.26 151.26 60.5 148.5 60.5C145.74 60.5 143.5 58.26 143.5 55.5C143.5 52.74 145.74 50.5 148.5 50.5C151.26 50.5 153.5 52.74 153.5 55.5Z" id="aAil5xf73"></path><path d="M138.5 50.5C138.5 30.53 143.15 32.53 143.67 30.53C147.12 30.53 148.84 35.08 148.84 44.17" id="a7XulmK7kR"></path><path d="M148.84 49.42L145.34 42.42L148.84 44.17L152.34 42.42L148.84 49.42Z" id="aEBJxqzY"></path><path d="M183.5 55.5C183.5 58.26 181.26 60.5 178.5 60.5C175.74 60.5 173.5 58.26 173.5 55.5C173.5 52.74 175.74 50.5 178.5 50.5C181.26 50.5 183.5 52.74 183.5 55.5Z" id="cPwx5RMj"></path><path d="M88.5 50.5C88.84 30.53 108.98 32.53 111.26 30.53C133.67 30.53 131.43 40.15 133.67 41.22C133.67 48.35 149.76 51.91 181.95 51.91" id="a1SBqEydFF"></path><path d="M143.5 155.5C143.5 158.26 141.26 160.5 138.5 160.5C135.74 160.5 133.5 158.26 133.5 155.5C133.5 152.74 135.74 150.5 138.5 150.5C141.26 150.5 143.5 152.74 143.5 155.5Z" id="b22zWHQqY"></path><path d="M103.33 56.8C103.33 120.21 116.2 151.91 141.95 151.91" id="b2gTeBKgs1"></path><path d="M173.5 95.5C173.5 98.26 171.26 100.5 168.5 100.5C165.74 100.5 163.5 98.26 163.5 95.5C163.5 92.74 165.74 90.5 168.5 90.5C171.26 90.5 173.5 92.74 173.5 95.5Z" id="b5kIgS9n"></path><path d="M153.5 55.36C193.67 55.36 189.65 73.36 193.67 75.36C193.67 88.69 189.13 95.36 180.04 95.36" id="a1JwGH4iKG"></path><path d="M174.79 95.36L181.79 91.86L180.04 95.36L181.79 98.86L174.79 95.36Z" id="b1kqAG5MjY"></path><path d="M98.5 95.36C125.17 95.36 138.5 85.76 138.5 66.56" id="b26nve3m23"></path><path d="M138.5 61.31L142 68.31L138.5 66.56L135 68.31L138.5 61.31Z" id="hFl27fbEc"></path><path d="M98.5 95.5C98.5 98.26 96.26 100.5 93.5 100.5C90.74 100.5 88.5 98.26 88.5 95.5C88.5 92.74 90.74 90.5 93.5 90.5C96.26 90.5 98.5 92.74 98.5 95.5Z" id="aBi2goqgM"></path><path d="M133.5 155.5C133.5 158.26 131.26 160.5 128.5 160.5C125.74 160.5 123.5 158.26 123.5 155.5C123.5 152.74 125.74 150.5 128.5 150.5C131.26 150.5 133.5 152.74 133.5 155.5Z" id="a1tAwLgvfT"></path><path d="M68.5 175.36C85.28 175.36 93.61 150.41 93.5 100.5" id="ic2qxUllx"></path><path d="M68.5 175.5C68.5 178.26 66.26 180.5 63.5 180.5C60.74 180.5 58.5 178.26 58.5 175.5C58.5 172.74 60.74 170.5 63.5 170.5C66.26 170.5 68.5 172.74 68.5 175.5Z" id="aaofkge86"></path><path d="M78.5 175.5C78.5 178.26 76.26 180.5 73.5 180.5C70.74 180.5 68.5 178.26 68.5 175.5C68.5 172.74 70.74 170.5 73.5 170.5C76.26 170.5 78.5 172.74 78.5 175.5Z" id="axSVQV3rs"></path><path d="M93.5 175.5C93.5 178.26 91.26 180.5 88.5 180.5C85.74 180.5 83.5 178.26 83.5 175.5C83.5 172.74 85.74 170.5 88.5 170.5C91.26 170.5 93.5 172.74 93.5 175.5Z" id="buGWHmFcV"></path><path d="M103.5 175.5C103.5 178.26 101.26 180.5 98.5 180.5C95.74 180.5 93.5 178.26 93.5 175.5C93.5 172.74 95.74 170.5 98.5 170.5C101.26 170.5 103.5 172.74 103.5 175.5Z" id="aJ8c8HkGV"></path><path d="M13.5 175.36C23.33 175.36 22.35 122.92 23.33 117.09C23.33 78.24 29.54 58.81 41.95 58.81" id="a2f75KPx89"></path><path d="M13.5 175.36C43.5 175.36 58.5 136.97 58.5 60.19" id="f2msgZvHLZ"></path><path d="M13.5 175.36C33.39 175.36 43.39 137.07 43.5 60.5" id="aVYor8xz"></path><path d="M13.5 175.5C13.5 178.26 11.26 180.5 8.5 180.5C5.74 180.5 3.5 178.26 3.5 175.5C3.5 172.74 5.74 170.5 8.5 170.5C11.26 170.5 13.5 172.74 13.5 175.5Z" id="b9M37nnWF"></path><path d="M98.5 170.5C98.5 150.53 58.15 152.53 53.67 150.53C23.78 150.53 8.73 157.19 8.5 170.5" id="a76LsXnHze"></path><path d="M113.5 175.5C113.5 178.26 111.26 180.5 108.5 180.5C105.74 180.5 103.5 178.26 103.5 175.5C103.5 172.74 105.74 170.5 108.5 170.5C111.26 170.5 113.5 172.74 113.5 175.5Z" id="e1PlgeGDWw"></path><path d="M118.5 175.36C113.67 175.36 114.15 123.54 113.67 117.78C113.67 79.39 125.39 60.19 148.84 60.19" id="c20SlbC6Q6"></path><path d="M118.5 175.36C99.65 175.36 90.22 149.84 90.22 98.81" id="bw9jsr0HG"></path><path d="M128.5 175.5C128.5 178.26 126.26 180.5 123.5 180.5C120.74 180.5 118.5 178.26 118.5 175.5C118.5 172.74 120.74 170.5 123.5 170.5C126.26 170.5 128.5 172.74 128.5 175.5Z" id="b2mEP4zMg6"></path><path d="M153.5 175.36C97.06 175.36 68.84 136.97 68.84 60.19" id="a1pFMJWFe9"></path><path d="M163.5 175.5C163.5 178.26 161.26 180.5 158.5 180.5C155.74 180.5 153.5 178.26 153.5 175.5C153.5 172.74 155.74 170.5 158.5 170.5C161.26 170.5 163.5 172.74 163.5 175.5Z" id="a1TxOFi0Yx"></path><path d="M173.48 175.94C173.24 178.69 170.82 180.72 168.06 180.48C165.31 180.24 163.28 177.82 163.52 175.06C163.76 172.31 166.18 170.28 168.94 170.52C171.69 170.76 173.72 173.18 173.48 175.94Z" id="c4RgOUdf1"></path><path d="M183.5 175.5C183.5 178.26 181.26 180.5 178.5 180.5C175.74 180.5 173.5 178.26 173.5 175.5C173.5 172.74 175.74 170.5 178.5 170.5C181.26 170.5 183.5 172.74 183.5 175.5Z" id="aPTXioGCd"></path><path d="M183.5 175.36C126.83 175.36 98.5 136.97 98.5 60.19" id="c15ZS1aEwH"></path><path d="M193.5 175.5C193.5 178.26 191.26 180.5 188.5 180.5C185.74 180.5 183.5 178.26 183.5 175.5C183.5 172.74 185.74 170.5 188.5 170.5C191.26 170.5 193.5 172.74 193.5 175.5Z" id="c6O5h0Oj"></path><path d="M213.5 95.36C161.2 95.36 135.05 83.18 135.05 58.81" id="d1EoYcjDSj"></path><path d="M223.5 95.5C223.5 98.26 221.26 100.5 218.5 100.5C215.74 100.5 213.5 98.26 213.5 95.5C213.5 92.74 215.74 90.5 218.5 90.5C221.26 90.5 223.5 92.74 223.5 95.5Z" id="c2YJtDDGEn"></path><path d="M163.5 175.36C197.87 175.36 215.05 149.84 215.05 98.81" id="a61AuFo4k"></path><path d="M208.5 135.36C188.5 135.36 178.5 110.3 178.5 60.19" id="fi66VOp6p"></path><path d="M218.5 135.5C218.5 138.26 216.26 140.5 213.5 140.5C210.74 140.5 208.5 138.26 208.5 135.5C208.5 132.74 210.74 130.5 213.5 130.5C216.26 130.5 218.5 132.74 218.5 135.5Z" id="gS2kOOkXY"></path><path d="M78.5 185.5C78.5 188.26 76.26 190.5 73.5 190.5C70.74 190.5 68.5 188.26 68.5 185.5C68.5 182.74 70.74 180.5 73.5 180.5C76.26 180.5 78.5 182.74 78.5 185.5Z" id="bnDZcb9f"></path><path d="M13.5 175.36C48.84 175.36 45.31 182.19 48.84 182.95C48.84 188 54.99 190.53 67.3 190.53" id="clEFZMgSG"></path><path d="M72.55 190.53L65.55 194.03L67.3 190.53L65.55 187.03L72.55 190.53Z" id="g7a0Sc47J5"></path><path d="M78.5 185.71C48.61 185.71 33.61 143.97 33.5 60.5" id="fbpNmQv8u"></path><path d="M88.5 185.5C88.5 188.26 86.26 190.5 83.5 190.5C80.74 190.5 78.5 188.26 78.5 185.5C78.5 182.74 80.74 180.5 83.5 180.5C86.26 180.5 88.5 182.74 88.5 185.5Z" id="a2ir9yJgM0"></path><path d="M103.5 185.5C103.5 188.26 101.26 190.5 98.5 190.5C95.74 190.5 93.5 188.26 93.5 185.5C93.5 182.74 95.74 180.5 98.5 180.5C101.26 180.5 103.5 182.74 103.5 185.5Z" id="b1vIOYxLt6"></path><path d="M58.5 125.71C129.31 125.71 164.71 116.74 164.71 98.81" id="abGUYBQDC"></path><path d="M58.5 125.71C103.33 125.71 98.85 141.23 103.33 142.95C103.33 160.19 89.98 158.47 88.5 160.19C78.61 160.19 73.67 163.64 73.67 170.53" id="cBS3BUWKX"></path><path d="M58.5 125.71C87.47 125.71 101.95 103.41 101.95 58.81" id="a7QUeQPJu"></path><path d="M48.5 125.71C19.31 125.71 4.71 138.99 4.71 165.55" id="b2sCWjiUpe"></path><path d="M4.71 170.8L1.21 163.8L4.71 165.55L8.21 163.8L4.71 170.8Z" id="fdIXHuogX"></path><path d="M58.5 125.71C73.67 125.71 72.15 109.88 73.67 108.12C73.67 90.53 60.02 92.29 58.5 90.53C48.39 90.53 43.33 80.42 43.33 60.19" id="cfrGOyHXw"></path><path d="M58.5 125.71C78.73 125.71 88.84 103.87 88.84 60.19" id="i2SijOQnVo"></path><path d="M58.5 125.71C136.2 125.71 175.05 103.41 175.05 58.81" id="a3OfeDpzkY"></path><path d="M58.5 125.5C58.5 128.26 56.26 130.5 53.5 130.5C50.74 130.5 48.5 128.26 48.5 125.5C48.5 122.74 50.74 120.5 53.5 120.5C56.26 120.5 58.5 122.74 58.5 125.5Z" id="a1Llylp2Cp"></path><path d="M123.5 155.36C79.25 155.36 57.12 148.75 57.12 135.52" id="b2a1xot45"></path><path d="M57.12 130.27L60.62 137.27L57.12 135.52L53.62 137.27L57.12 130.27Z" id="a28DU6P9B"></path><path d="M63.5 170.5C63.33 150.53 57.45 152.53 56.78 150.53C52.41 150.53 50.22 143.41 50.22 129.16" id="k13smU9jFR"></path><path d="M13.5 175.36C40.28 175.36 53.67 160.42 53.67 130.53" id="b9sA2YIKC"></path><path d="M113.5 185.5C113.5 188.26 111.26 190.5 108.5 190.5C105.74 190.5 103.5 188.26 103.5 185.5C103.5 182.74 105.74 180.5 108.5 180.5C111.26 180.5 113.5 182.74 113.5 185.5Z" id="bzrmN69Dz"></path><path d="M123.5 185.5C123.5 188.26 121.26 190.5 118.5 190.5C115.74 190.5 113.5 188.26 113.5 185.5C113.5 182.74 115.74 180.5 118.5 180.5C121.26 180.5 123.5 182.74 123.5 185.5Z" id="b9dNQdimkm"></path><path d="M128.5 185.71C103.33 185.71 105.85 192.23 103.33 192.95C103.33 200.19 89.98 199.47 88.5 200.19C78.61 200.19 73.67 196.97 73.67 190.53" id="bFd2qWMZs"></path><path d="M138.5 185.71C153.67 185.71 152.15 187.88 153.67 188.12C153.67 190.53 164.85 190.29 166.09 190.53C174.36 190.53 178.5 187.08 178.5 180.19" id="e1cMP61fF"></path><path d="M138.5 185.71C151.83 185.71 158.5 183.87 158.5 180.19" id="b2Rbt8pAwm"></path><path d="M138.5 185.5C138.5 188.26 136.26 190.5 133.5 190.5C130.74 190.5 128.5 188.26 128.5 185.5C128.5 182.74 130.74 180.5 133.5 180.5C136.26 180.5 138.5 182.74 138.5 185.5Z" id="cxBysehNX"></path><path d="M163.5 135.36C140.39 135.36 128.84 138.3 128.84 144.17" id="bknjY1C2U"></path><path d="M128.84 149.42L125.34 142.42L128.84 144.17L132.34 142.42L128.84 149.42Z" id="d2LRYH5ap"></path><path d="M173.5 135.5C173.5 138.26 171.26 140.5 168.5 140.5C165.74 140.5 163.5 138.26 163.5 135.5C163.5 132.74 165.74 130.5 168.5 130.5C171.26 130.5 173.5 132.74 173.5 135.5Z" id="h2scU0EZR7"></path><path d="M168.5 100.5C168.84 120.88 157.33 118.84 156.09 120.88C143.33 120.88 144.61 127.4 143.33 128.12C143.33 132.95 147.87 135.36 156.96 135.36" id="c4id37g6fu"></path><path d="M162.21 135.36L155.21 138.86L156.96 135.36L155.21 131.86L162.21 135.36Z" id="a1DVNHzTML"></path><path d="M158.5 170.5C158.5 150.53 163.15 152.53 163.67 150.53C167.12 150.53 168.84 147.08 168.84 140.19" id="b1RcHiRBjy"></path><path d="M168.53 170.5C168.16 149.84 157.02 151.91 155.74 149.84C143.33 149.84 144.57 143.32 143.33 142.6C143.33 137.77 150 135.36 163.33 135.36" id="dasns0RpFm"></path><path d="M168.53 170.5C168.16 149.84 168.5 151.91 168.5 149.84C168.73 149.84 168.84 146.62 168.84 140.19" id="a2kRKhgxU1"></path><path d="M173.5 135.36C147.87 135.36 135.05 109.84 135.05 58.81" id="gUQ8SimMn"></path><path d="M183.5 135.5C183.5 138.26 181.26 140.5 178.5 140.5C175.74 140.5 173.5 138.26 173.5 135.5C173.5 132.74 175.74 130.5 178.5 130.5C181.26 130.5 183.5 132.74 183.5 135.5Z" id="f5IruBPqEZ"></path><path d="M178.5 170.5C178.5 157.19 178.5 147.08 178.5 140.19" id="b2h6r0j5Zs"></path><path d="M183.5 135.36C117.64 135.36 84.71 109.84 84.71 58.81" id="c1jY3wL2ys"></path><path d="M193.5 135.5C193.5 138.26 191.26 140.5 188.5 140.5C185.74 140.5 183.5 138.26 183.5 135.5C183.5 132.74 185.74 130.5 188.5 130.5C191.26 130.5 193.5 132.74 193.5 135.5Z" id="c2CY0UzgEm"></path><path d="M173.5 95.36C203.33 95.36 200.35 106.54 203.33 107.78C203.33 120.19 196.81 118.95 196.09 120.19C191.26 120.19 188.84 123.64 188.84 130.53" id="c3xDOJtBMQ"></path><path d="M128.5 175.36C168.73 175.36 188.84 163.64 188.84 140.19" id="e9bwaRSIl"></path><path d="M203.5 135.5C203.5 138.26 201.26 140.5 198.5 140.5C195.74 140.5 193.5 138.26 193.5 135.5C193.5 132.74 195.74 130.5 198.5 130.5C201.26 130.5 203.5 132.74 203.5 135.5Z" id="c16fkmUQlf"></path><path d="M93.5 55.36C143.33 55.36 138.35 66.54 143.33 67.78C143.33 80.19 168.15 78.95 170.91 80.19C189.3 80.19 198.5 96.97 198.5 130.53" id="c7pRkU90g"></path><path d="M43.5 15.5C43.5 18.26 41.26 20.5 38.5 20.5C35.74 20.5 33.5 18.26 33.5 15.5C33.5 12.74 35.74 10.5 38.5 10.5C41.26 10.5 43.5 12.74 43.5 15.5Z" id="cxDSKHOS8"></path><path d="M53.5 15.5C53.5 18.26 51.26 20.5 48.5 20.5C45.74 20.5 43.5 18.26 43.5 15.5C43.5 12.74 45.74 10.5 48.5 10.5C51.26 10.5 53.5 12.74 53.5 15.5Z" id="h20g4U6iiu"></path><path d="M38.5 50.5C38.5 40.19 36.95 41.22 36.78 40.19C35.63 40.19 35.05 33.06 35.05 18.81" id="arWhE1RKR"></path><path d="M48.5 125.71C28.84 125.71 30.81 96.23 28.84 92.95C28.84 60.19 22.02 63.47 21.26 60.19C13.67 60.19 14.43 42.19 13.67 40.19C13.67 26.86 21.95 20.19 38.5 20.19" id="bOpZLEFjj"></path><path d="M41.95 18.81C63.33 18.81 61.19 51.71 63.33 55.36C63.33 79.73 72.47 91.91 90.75 91.91" id="a1M6yEpYzN"></path><path d="M96 91.91L89 95.41L90.75 91.91L89 88.41L96 91.91Z" id="b14EOPmRXY"></path><path d="M48.5 20.5C48.84 40.19 91.95 38.22 96.78 40.19C128.73 40.19 144.71 44.1 144.71 51.91" id="d2YJGC5Pdl"></path><path d="M13.5 19.5C13.5 12.3 13.5 8.7 21 8.7C16 8.7 16 1.5 21 1.5C26 1.5 26 8.7 21 8.7C28.5 8.7 28.5 12.3 28.5 19.5C25.5 19.5 16.5 19.5 13.5 19.5Z" id="c3IQdNjhN6"></path></defs><g><g><use xlink:href="#e8dMP97oC" opacity="1" fill="#000000" fill-opacity="0"></use><g><use xlink:href="#e8dMP97oC" opacity="1" fill-opacity="0" stroke="#d2d5d9" stroke-width="1" stroke-opacity="1"></use></g></g><g><use xlink:href="#b1HDmyjFNs" opacity="1" fill="#ffffff" fill-opacity="1"></use><g><use xlink:href="#b1HDmyjFNs" opacity="1" fill-opacity="0" stroke="#8d9299" stroke-width="1" stroke-opacity="1"></use></g></g><g><use xlink:href="#aT9YRvFd" opacity="1" fill="#000000" fill-opacity="0"></use><g><use xlink:href="#aT9YRvFd" opacity="1" fill-opacity="0" stroke="#d2d5d9" stroke-width="1" stroke-opacity="1"></use></g></g><g><use xlink:href="#aIL7dja1z" opacity="1" fill="#ffffff" fill-opacity="1"></use><g><use xlink:href="#aIL7dja1z" opacity="1" fill-opacity="0" stroke="#8d9299" stroke-width="1" stroke-opacity="1"></use></g></g><g><use xlink:href="#c1GNHXVc8E" opacity="1" fill="#ffffff" fill-opacity="1"></use><g><use xlink:href="#c1GNHXVc8E" opacity="1" fill-opacity="0" stroke="#acd62f" stroke-width="1" stroke-opacity="1"></use></g></g><g><use xlink:href="#bdKlAKkns" opacity="1" fill="#ffffff" fill-opacity="1"></use><g><use xlink:href="#bdKlAKkns" opacity="1" fill-opacity="0" stroke="#8d9299" stroke-width="1" stroke-opacity="1"></use></g></g><g><use xlink:href="#b29ZtbsVCi" opacity="1" fill="#ffffff" fill-opacity="1"></use><g><use xlink:href="#b29ZtbsVCi" opacity="1" fill-opacity="0" stroke="#8d9299" stroke-width="1" stroke-opacity="1"></use></g></g><g><use xlink:href="#c1J99esbv" opacity="1" fill="#ffffff" fill-opacity="1"></use><g><use xlink:href="#c1J99esbv" opacity="1" fill-opacity="0" stroke="#959ca4" stroke-width="1" stroke-opacity="1"></use></g></g><g><use xlink:href="#aAil5xf73" opacity="1" fill="#ffffff" fill-opacity="1"></use><g><use xlink:href="#aAil5xf73" opacity="1" fill-opacity="0" stroke="#acd62f" stroke-width="1" stroke-opacity="1"></use></g></g><g><use xlink:href="#a7XulmK7kR" opacity="1" fill="#000000" fill-opacity="0"></use><g><use xlink:href="#a7XulmK7kR" opacity="1" fill-opacity="0" stroke="#0a6ed1" stroke-width="1" stroke-opacity="1"></use></g></g><g><use xlink:href="#aEBJxqzY" opacity="1" fill="#0a6ed1" fill-opacity="1"></use><g><use xlink:href="#aEBJxqzY" opacity="1" fill-opacity="0" stroke="#0a6ed1" stroke-width="1" stroke-opacity="1"></use></g></g><g><use xlink:href="#cPwx5RMj" opacity="1" fill="#ffffff" fill-opacity="1"></use><g><use xlink:href="#cPwx5RMj" opacity="1" fill-opacity="0" stroke="#959ca4" stroke-width="1" stroke-opacity="1"></use></g></g><g><use xlink:href="#a1SBqEydFF" opacity="1" fill="#000000" fill-opacity="0"></use><g><use xlink:href="#a1SBqEydFF" opacity="1" fill-opacity="0" stroke="#d2d5d9" stroke-width="1" stroke-opacity="1"></use></g></g><g><use xlink:href="#b22zWHQqY" opacity="1" fill="#ffffff" fill-opacity="1"></use><g><use xlink:href="#b22zWHQqY" opacity="1" fill-opacity="0" stroke="#959ca4" stroke-width="1" stroke-opacity="1"></use></g></g><g><use xlink:href="#b2gTeBKgs1" opacity="1" fill="#000000" fill-opacity="0"></use><g><use xlink:href="#b2gTeBKgs1" opacity="1" fill-opacity="0" stroke="#d2d5d9" stroke-width="1" stroke-opacity="1"></use></g></g><g><use xlink:href="#b5kIgS9n" opacity="1" fill="#ffffff" fill-opacity="1"></use><g><use xlink:href="#b5kIgS9n" opacity="1" fill-opacity="0" stroke="#acd62f" stroke-width="1" stroke-opacity="1"></use></g></g><g><use xlink:href="#a1JwGH4iKG" opacity="1" fill="#000000" fill-opacity="0"></use><g><use xlink:href="#a1JwGH4iKG" opacity="1" fill-opacity="0" stroke="#0a6ed1" stroke-width="1" stroke-opacity="1"></use></g></g><g><use xlink:href="#b1kqAG5MjY" opacity="1" fill="#0a6ed1" fill-opacity="1"></use><g><use xlink:href="#b1kqAG5MjY" opacity="1" fill-opacity="0" stroke="#0a6ed1" stroke-width="1" stroke-opacity="1"></use></g></g><g><use xlink:href="#b26nve3m23" opacity="1" fill="#000000" fill-opacity="0"></use><g><use xlink:href="#b26nve3m23" opacity="1" fill-opacity="0" stroke="#0a6ed1" stroke-width="1" stroke-opacity="1"></use></g></g><g><use xlink:href="#hFl27fbEc" opacity="1" fill="#0a6ed1" fill-opacity="1"></use><g><use xlink:href="#hFl27fbEc" opacity="1" fill-opacity="0" stroke="#0a6ed1" stroke-width="1" stroke-opacity="1"></use></g></g><g><use xlink:href="#aBi2goqgM" opacity="1" fill="#ffffff" fill-opacity="1"></use><g><use xlink:href="#aBi2goqgM" opacity="1" fill-opacity="0" stroke="#8d9299" stroke-width="1" stroke-opacity="1"></use></g></g><g><use xlink:href="#a1tAwLgvfT" opacity="1" fill="#ffffff" fill-opacity="1"></use><g><use xlink:href="#a1tAwLgvfT" opacity="1" fill-opacity="0" stroke="#8d9299" stroke-width="1" stroke-opacity="1"></use></g></g><g><use xlink:href="#ic2qxUllx" opacity="1" fill="#000000" fill-opacity="0"></use><g><use xlink:href="#ic2qxUllx" opacity="1" fill-opacity="0" stroke="#d2d5d9" stroke-width="1" stroke-opacity="1"></use></g></g><g><use xlink:href="#aaofkge86" opacity="1" fill="#ffffff" fill-opacity="1"></use><g><use xlink:href="#aaofkge86" opacity="1" fill-opacity="0" stroke="#8d9299" stroke-width="1" stroke-opacity="1"></use></g></g><g><use xlink:href="#axSVQV3rs" opacity="1" fill="#ffffff" fill-opacity="1"></use><g><use xlink:href="#axSVQV3rs" opacity="1" fill-opacity="0" stroke="#8d9299" stroke-width="1" stroke-opacity="1"></use></g></g><g><use xlink:href="#buGWHmFcV" opacity="1" fill="#ffffff" fill-opacity="1"></use><g><use xlink:href="#buGWHmFcV" opacity="1" fill-opacity="0" stroke="#8d9299" stroke-width="1" stroke-opacity="1"></use></g></g><g><use xlink:href="#aJ8c8HkGV" opacity="1" fill="#ffffff" fill-opacity="1"></use><g><use xlink:href="#aJ8c8HkGV" opacity="1" fill-opacity="0" stroke="#acd62f" stroke-width="1" stroke-opacity="1"></use></g></g><g><use xlink:href="#a2f75KPx89" opacity="1" fill="#000000" fill-opacity="0"></use><g><use xlink:href="#a2f75KPx89" opacity="1" fill-opacity="0" stroke="#d2d5d9" stroke-width="1" stroke-opacity="1"></use></g></g><g><use xlink:href="#f2msgZvHLZ" opacity="1" fill="#000000" fill-opacity="0"></use><g><use xlink:href="#f2msgZvHLZ" opacity="1" fill-opacity="0" stroke="#d2d5d9" stroke-width="1" stroke-opacity="1"></use></g></g><g><use xlink:href="#aVYor8xz" opacity="1" fill="#000000" fill-opacity="0"></use><g><use xlink:href="#aVYor8xz" opacity="1" fill-opacity="0" stroke="#d2d5d9" stroke-width="1" stroke-opacity="1"></use></g></g><g><use xlink:href="#b9M37nnWF" opacity="1" fill="#ffffff" fill-opacity="1"></use><g><use xlink:href="#b9M37nnWF" opacity="1" fill-opacity="0" stroke="#acd62f" stroke-width="1" stroke-opacity="1"></use></g></g><g><use xlink:href="#a76LsXnHze" opacity="1" fill="#000000" fill-opacity="0"></use><g><use xlink:href="#a76LsXnHze" opacity="1" fill-opacity="0" stroke="#d2d5d9" stroke-width="1" stroke-opacity="1"></use></g></g><g><use xlink:href="#e1PlgeGDWw" opacity="1" fill="#ffffff" fill-opacity="1"></use><g><use xlink:href="#e1PlgeGDWw" opacity="1" fill-opacity="0" stroke="#959ca4" stroke-width="1" stroke-opacity="1"></use></g></g><g><use xlink:href="#c20SlbC6Q6" opacity="1" fill="#000000" fill-opacity="0"></use><g><use xlink:href="#c20SlbC6Q6" opacity="1" fill-opacity="0" stroke="#d2d5d9" stroke-width="1" stroke-opacity="1"></use></g></g><g><use xlink:href="#bw9jsr0HG" opacity="1" fill="#000000" fill-opacity="0"></use><g><use xlink:href="#bw9jsr0HG" opacity="1" fill-opacity="0" stroke="#d2d5d9" stroke-width="1" stroke-opacity="1"></use></g></g><g><use xlink:href="#b2mEP4zMg6" opacity="1" fill="#ffffff" fill-opacity="1"></use><g><use xlink:href="#b2mEP4zMg6" opacity="1" fill-opacity="0" stroke="#8d9299" stroke-width="1" stroke-opacity="1"></use></g></g><g><use xlink:href="#a1pFMJWFe9" opacity="1" fill="#000000" fill-opacity="0"></use><g><use xlink:href="#a1pFMJWFe9" opacity="1" fill-opacity="0" stroke="#d2d5d9" stroke-width="1" stroke-opacity="1"></use></g></g><g><use xlink:href="#a1TxOFi0Yx" opacity="1" fill="#ffffff" fill-opacity="1"></use><g><use xlink:href="#a1TxOFi0Yx" opacity="1" fill-opacity="0" stroke="#8d9299" stroke-width="1" stroke-opacity="1"></use></g></g><g><use xlink:href="#c4RgOUdf1" opacity="1" fill="#ffffff" fill-opacity="1"></use><g><use xlink:href="#c4RgOUdf1" opacity="1" fill-opacity="0" stroke="#8d9299" stroke-width="1" stroke-opacity="1"></use></g></g><g><use xlink:href="#aPTXioGCd" opacity="1" fill="#ffffff" fill-opacity="1"></use><g><use xlink:href="#aPTXioGCd" opacity="1" fill-opacity="0" stroke="#8d9299" stroke-width="1" stroke-opacity="1"></use></g></g><g><use xlink:href="#c15ZS1aEwH" opacity="1" fill="#000000" fill-opacity="0"></use><g><use xlink:href="#c15ZS1aEwH" opacity="1" fill-opacity="0" stroke="#d2d5d9" stroke-width="1" stroke-opacity="1"></use></g></g><g><use xlink:href="#c6O5h0Oj" opacity="1" fill="#ffffff" fill-opacity="1"></use><g><use xlink:href="#c6O5h0Oj" opacity="1" fill-opacity="0" stroke="#acd62f" stroke-width="1" stroke-opacity="1"></use></g></g><g><use xlink:href="#d1EoYcjDSj" opacity="1" fill="#000000" fill-opacity="0"></use><g><use xlink:href="#d1EoYcjDSj" opacity="1" fill-opacity="0" stroke="#d2d5d9" stroke-width="1" stroke-opacity="1"></use></g></g><g><use xlink:href="#c2YJtDDGEn" opacity="1" fill="#ffffff" fill-opacity="1"></use><g><use xlink:href="#c2YJtDDGEn" opacity="1" fill-opacity="0" stroke="#959ca4" stroke-width="1" stroke-opacity="1"></use></g></g><g><use xlink:href="#a61AuFo4k" opacity="1" fill="#000000" fill-opacity="0"></use><g><use xlink:href="#a61AuFo4k" opacity="1" fill-opacity="0" stroke="#d2d5d9" stroke-width="1" stroke-opacity="1"></use></g></g><g><use xlink:href="#fi66VOp6p" opacity="1" fill="#000000" fill-opacity="0"></use><g><use xlink:href="#fi66VOp6p" opacity="1" fill-opacity="0" stroke="#d2d5d9" stroke-width="1" stroke-opacity="1"></use></g></g><g><use xlink:href="#gS2kOOkXY" opacity="1" fill="#ffffff" fill-opacity="1"></use><g><use xlink:href="#gS2kOOkXY" opacity="1" fill-opacity="0" stroke="#959ca4" stroke-width="1" stroke-opacity="1"></use></g></g><g><use xlink:href="#bnDZcb9f" opacity="1" fill="#ffffff" fill-opacity="1"></use><g><use xlink:href="#bnDZcb9f" opacity="1" fill-opacity="0" stroke="#8d9299" stroke-width="1" stroke-opacity="1"></use></g></g><g><use xlink:href="#clEFZMgSG" opacity="1" fill="#000000" fill-opacity="0"></use><g><use xlink:href="#clEFZMgSG" opacity="1" fill-opacity="0" stroke="#0a6ed1" stroke-width="1" stroke-opacity="1"></use></g></g><g><use xlink:href="#g7a0Sc47J5" opacity="1" fill="#0a6ed1" fill-opacity="1"></use><g><use xlink:href="#g7a0Sc47J5" opacity="1" fill-opacity="0" stroke="#0a6ed1" stroke-width="1" stroke-opacity="1"></use></g></g><g><use xlink:href="#fbpNmQv8u" opacity="1" fill="#000000" fill-opacity="0"></use><g><use xlink:href="#fbpNmQv8u" opacity="1" fill-opacity="0" stroke="#d2d5d9" stroke-width="1" stroke-opacity="1"></use></g></g><g><use xlink:href="#a2ir9yJgM0" opacity="1" fill="#ffffff" fill-opacity="1"></use><g><use xlink:href="#a2ir9yJgM0" opacity="1" fill-opacity="0" stroke="#8d9299" stroke-width="1" stroke-opacity="1"></use></g></g><g><use xlink:href="#b1vIOYxLt6" opacity="1" fill="#ffffff" fill-opacity="1"></use><g><use xlink:href="#b1vIOYxLt6" opacity="1" fill-opacity="0" stroke="#8d9299" stroke-width="1" stroke-opacity="1"></use></g></g><g><use xlink:href="#abGUYBQDC" opacity="1" fill="#000000" fill-opacity="0"></use><g><use xlink:href="#abGUYBQDC" opacity="1" fill-opacity="0" stroke="#d2d5d9" stroke-width="1" stroke-opacity="1"></use></g></g><g><use xlink:href="#cBS3BUWKX" opacity="1" fill="#000000" fill-opacity="0"></use><g><use xlink:href="#cBS3BUWKX" opacity="1" fill-opacity="0" stroke="#d2d5d9" stroke-width="1" stroke-opacity="1"></use></g></g><g><use xlink:href="#a7QUeQPJu" opacity="1" fill="#000000" fill-opacity="0"></use><g><use xlink:href="#a7QUeQPJu" opacity="1" fill-opacity="0" stroke="#d2d5d9" stroke-width="1" stroke-opacity="1"></use></g></g><g><use xlink:href="#b2sCWjiUpe" opacity="1" fill="#000000" fill-opacity="0"></use><g><use xlink:href="#b2sCWjiUpe" opacity="1" fill-opacity="0" stroke="#0a6ed1" stroke-width="1" stroke-opacity="1"></use></g></g><g><use xlink:href="#fdIXHuogX" opacity="1" fill="#0a6ed1" fill-opacity="1"></use><g><use xlink:href="#fdIXHuogX" opacity="1" fill-opacity="0" stroke="#0a6ed1" stroke-width="1" stroke-opacity="1"></use></g></g><g><use xlink:href="#cfrGOyHXw" opacity="1" fill="#000000" fill-opacity="0"></use><g><use xlink:href="#cfrGOyHXw" opacity="1" fill-opacity="0" stroke="#d2d5d9" stroke-width="1" stroke-opacity="1"></use></g></g><g><use xlink:href="#i2SijOQnVo" opacity="1" fill="#000000" fill-opacity="0"></use><g><use xlink:href="#i2SijOQnVo" opacity="1" fill-opacity="0" stroke="#d2d5d9" stroke-width="1" stroke-opacity="1"></use></g></g><g><use xlink:href="#a3OfeDpzkY" opacity="1" fill="#000000" fill-opacity="0"></use><g><use xlink:href="#a3OfeDpzkY" opacity="1" fill-opacity="0" stroke="#d2d5d9" stroke-width="1" stroke-opacity="1"></use></g></g><g><use xlink:href="#a1Llylp2Cp" opacity="1" fill="#ffffff" fill-opacity="1"></use><g><use xlink:href="#a1Llylp2Cp" opacity="1" fill-opacity="0" stroke="#8d9299" stroke-width="1" stroke-opacity="1"></use></g></g><g><use xlink:href="#b2a1xot45" opacity="1" fill="#000000" fill-opacity="0"></use><g><use xlink:href="#b2a1xot45" opacity="1" fill-opacity="0" stroke="#0a6ed1" stroke-width="1" stroke-opacity="1"></use></g></g><g><use xlink:href="#a28DU6P9B" opacity="1" fill="#0a6ed1" fill-opacity="1"></use><g><use xlink:href="#a28DU6P9B" opacity="1" fill-opacity="0" stroke="#0a6ed1" stroke-width="1" stroke-opacity="1"></use></g></g><g><use xlink:href="#k13smU9jFR" opacity="1" fill="#000000" fill-opacity="0"></use><g><use xlink:href="#k13smU9jFR" opacity="1" fill-opacity="0" stroke="#d2d5d9" stroke-width="1" stroke-opacity="1"></use></g></g><g><use xlink:href="#b9sA2YIKC" opacity="1" fill="#000000" fill-opacity="0"></use><g><use xlink:href="#b9sA2YIKC" opacity="1" fill-opacity="0" stroke="#d2d5d9" stroke-width="1" stroke-opacity="1"></use></g></g><g><use xlink:href="#bzrmN69Dz" opacity="1" fill="#ffffff" fill-opacity="1"></use><g><use xlink:href="#bzrmN69Dz" opacity="1" fill-opacity="0" stroke="#acd62f" stroke-width="1" stroke-opacity="1"></use></g></g><g><use xlink:href="#b9dNQdimkm" opacity="1" fill="#ffffff" fill-opacity="1"></use><g><use xlink:href="#b9dNQdimkm" opacity="1" fill-opacity="0" stroke="#959ca4" stroke-width="1" stroke-opacity="1"></use></g></g><g><use xlink:href="#bFd2qWMZs" opacity="1" fill="#000000" fill-opacity="0"></use><g><use xlink:href="#bFd2qWMZs" opacity="1" fill-opacity="0" stroke="#d2d5d9" stroke-width="1" stroke-opacity="1"></use></g></g><g><use xlink:href="#e1cMP61fF" opacity="1" fill="#000000" fill-opacity="0"></use><g><use xlink:href="#e1cMP61fF" opacity="1" fill-opacity="0" stroke="#d2d5d9" stroke-width="1" stroke-opacity="1"></use></g></g><g><use xlink:href="#b2Rbt8pAwm" opacity="1" fill="#000000" fill-opacity="0"></use><g><use xlink:href="#b2Rbt8pAwm" opacity="1" fill-opacity="0" stroke="#d2d5d9" stroke-width="1" stroke-opacity="1"></use></g></g><g><use xlink:href="#cxBysehNX" opacity="1" fill="#ffffff" fill-opacity="1"></use><g><use xlink:href="#cxBysehNX" opacity="1" fill-opacity="0" stroke="#8d9299" stroke-width="1" stroke-opacity="1"></use></g></g><g><use xlink:href="#bknjY1C2U" opacity="1" fill="#000000" fill-opacity="0"></use><g><use xlink:href="#bknjY1C2U" opacity="1" fill-opacity="0" stroke="#0a6ed1" stroke-width="1" stroke-opacity="1"></use></g></g><g><use xlink:href="#d2LRYH5ap" opacity="1" fill="#0a6ed1" fill-opacity="1"></use><g><use xlink:href="#d2LRYH5ap" opacity="1" fill-opacity="0" stroke="#0a6ed1" stroke-width="1" stroke-opacity="1"></use></g></g><g><use xlink:href="#h2scU0EZR7" opacity="1" fill="#ffffff" fill-opacity="1"></use><g><use xlink:href="#h2scU0EZR7" opacity="1" fill-opacity="0" stroke="#8d9299" stroke-width="1" stroke-opacity="1"></use></g></g><g><use xlink:href="#c4id37g6fu" opacity="1" fill="#000000" fill-opacity="0"></use><g><use xlink:href="#c4id37g6fu" opacity="1" fill-opacity="0" stroke="#0a6ed1" stroke-width="1" stroke-opacity="1"></use></g></g><g><use xlink:href="#a1DVNHzTML" opacity="1" fill="#0a6ed1" fill-opacity="1"></use><g><use xlink:href="#a1DVNHzTML" opacity="1" fill-opacity="0" stroke="#0a6ed1" stroke-width="1" stroke-opacity="1"></use></g></g><g><use xlink:href="#b1RcHiRBjy" opacity="1" fill="#000000" fill-opacity="0"></use><g><use xlink:href="#b1RcHiRBjy" opacity="1" fill-opacity="0" stroke="#d2d5d9" stroke-width="1" stroke-opacity="1"></use></g></g><g><use xlink:href="#dasns0RpFm" opacity="1" fill="#000000" fill-opacity="0"></use><g><use xlink:href="#dasns0RpFm" opacity="1" fill-opacity="0" stroke="#d2d5d9" stroke-width="1" stroke-opacity="1"></use></g></g><g><use xlink:href="#a2kRKhgxU1" opacity="1" fill="#000000" fill-opacity="0"></use><g><use xlink:href="#a2kRKhgxU1" opacity="1" fill-opacity="0" stroke="#d2d5d9" stroke-width="1" stroke-opacity="1"></use></g></g><g><use xlink:href="#gUQ8SimMn" opacity="1" fill="#000000" fill-opacity="0"></use><g><use xlink:href="#gUQ8SimMn" opacity="1" fill-opacity="0" stroke="#d2d5d9" stroke-width="1" stroke-opacity="1"></use></g></g><g><use xlink:href="#f5IruBPqEZ" opacity="1" fill="#ffffff" fill-opacity="1"></use><g><use xlink:href="#f5IruBPqEZ" opacity="1" fill-opacity="0" stroke="#8d9299" stroke-width="1" stroke-opacity="1"></use></g></g><g><use xlink:href="#b2h6r0j5Zs" opacity="1" fill="#000000" fill-opacity="0"></use><g><use xlink:href="#b2h6r0j5Zs" opacity="1" fill-opacity="0" stroke="#d2d5d9" stroke-width="1" stroke-opacity="1"></use></g></g><g><use xlink:href="#c1jY3wL2ys" opacity="1" fill="#000000" fill-opacity="0"></use><g><use xlink:href="#c1jY3wL2ys" opacity="1" fill-opacity="0" stroke="#d2d5d9" stroke-width="1" stroke-opacity="1"></use></g></g><g><use xlink:href="#c2CY0UzgEm" opacity="1" fill="#ffffff" fill-opacity="1"></use><g><use xlink:href="#c2CY0UzgEm" opacity="1" fill-opacity="0" stroke="#8d9299" stroke-width="1" stroke-opacity="1"></use></g></g><g><use xlink:href="#c3xDOJtBMQ" opacity="1" fill="#000000" fill-opacity="0"></use><g><use xlink:href="#c3xDOJtBMQ" opacity="1" fill-opacity="0" stroke="#d2d5d9" stroke-width="1" stroke-opacity="1"></use></g></g><g><use xlink:href="#e9bwaRSIl" opacity="1" fill="#000000" fill-opacity="0"></use><g><use xlink:href="#e9bwaRSIl" opacity="1" fill-opacity="0" stroke="#d2d5d9" stroke-width="1" stroke-opacity="1"></use></g></g><g><use xlink:href="#c16fkmUQlf" opacity="1" fill="#ffffff" fill-opacity="1"></use><g><use xlink:href="#c16fkmUQlf" opacity="1" fill-opacity="0" stroke="#acd62f" stroke-width="1" stroke-opacity="1"></use></g></g><g><use xlink:href="#c7pRkU90g" opacity="1" fill="#000000" fill-opacity="0"></use><g><use xlink:href="#c7pRkU90g" opacity="1" fill-opacity="0" stroke="#d2d5d9" stroke-width="1" stroke-opacity="1"></use></g></g><g><use xlink:href="#cxDSKHOS8" opacity="1" fill="#ffffff" fill-opacity="1"></use><g><use xlink:href="#cxDSKHOS8" opacity="1" fill-opacity="0" stroke="#8d9299" stroke-width="1" stroke-opacity="1"></use></g></g><g><use xlink:href="#h20g4U6iiu" opacity="1" fill="#ffffff" fill-opacity="1"></use><g><use xlink:href="#h20g4U6iiu" opacity="1" fill-opacity="0" stroke="#8d9299" stroke-width="1" stroke-opacity="1"></use></g></g><g><use xlink:href="#arWhE1RKR" opacity="1" fill="#000000" fill-opacity="0"></use><g><use xlink:href="#arWhE1RKR" opacity="1" fill-opacity="0" stroke="#d2d5d9" stroke-width="1" stroke-opacity="1"></use></g></g><g><use xlink:href="#bOpZLEFjj" opacity="1" fill="#000000" fill-opacity="0"></use><g><use xlink:href="#bOpZLEFjj" opacity="1" fill-opacity="0" stroke="#d2d5d9" stroke-width="1" stroke-opacity="1"></use></g></g><g><use xlink:href="#a1M6yEpYzN" opacity="1" fill="#000000" fill-opacity="0"></use><g><use xlink:href="#a1M6yEpYzN" opacity="1" fill-opacity="0" stroke="#0a6ed1" stroke-width="1" stroke-opacity="1"></use></g></g><g><use xlink:href="#b14EOPmRXY" opacity="1" fill="#0a6ed1" fill-opacity="1"></use><g><use xlink:href="#b14EOPmRXY" opacity="1" fill-opacity="0" stroke="#0a6ed1" stroke-width="1" stroke-opacity="1"></use></g></g><g><use xlink:href="#d2YJGC5Pdl" opacity="1" fill="#000000" fill-opacity="0"></use><g><use xlink:href="#d2YJGC5Pdl" opacity="1" fill-opacity="0" stroke="#d2d5d9" stroke-width="1" stroke-opacity="1"></use></g></g><g><use xlink:href="#c3IQdNjhN6" opacity="1" fill="#0a6ed1" fill-opacity="1"></use><g><use xlink:href="#c3IQdNjhN6" opacity="1" fill-opacity="0" stroke="#0a6ed1" stroke-width="1" stroke-opacity="1"></use></g></g></g></svg>